<?xml version="1.0" encoding="UTF-8" standalone="no"?>
<!-- Created with Inkscape (http://www.inkscape.org/) -->

<svg
   width="10000mm"
   height="10000mm"
   viewBox="0 0 10000 10000"
   version="1.1"
   id="svg5"
   sodipodi:docname="add_photo.svg"
   inkscape:version="1.1.2 (76b9e6a115, 2022-02-25)"
   xmlns:inkscape="http://www.inkscape.org/namespaces/inkscape"
   xmlns:sodipodi="http://sodipodi.sourceforge.net/DTD/sodipodi-0.dtd"
   xmlns="http://www.w3.org/2000/svg"
   xmlns:svg="http://www.w3.org/2000/svg">
  <sodipodi:namedview
     id="namedview7"
     pagecolor="#505050"
     bordercolor="#eeeeee"
     borderopacity="1"
     inkscape:pageshadow="0"
     inkscape:pageopacity="0"
     inkscape:pagecheckerboard="0"
     inkscape:document-units="mm"
     showgrid="false"
     width="1000mm"
     inkscape:zoom="0.034822023"
     inkscape:cx="12535.171"
     inkscape:cy="18565.837"
     inkscape:window-width="1920"
     inkscape:window-height="996"
     inkscape:window-x="0"
     inkscape:window-y="0"
     inkscape:window-maximized="1"
     inkscape:current-layer="layer1" />
  <defs
     id="defs2">
    <inkscape:path-effect
       effect="fillet_chamfer"
       id="path-effect7359"
       is_visible="true"
       lpeversion="1"
       satellites_param="F,1,0,1,0,0.029018584,0,40 @ F,1,0,1,0,0.0011888119,0,40 @ F,1,0,1,0,0.029018584,0,40 @ F,1,0,1,0,0.0011888119,0,40"
       unit="px"
       method="auto"
       mode="F"
       radius="26"
       chamfer_steps="40"
       flexible="true"
       use_knot_distance="true"
       apply_no_radius="true"
       apply_with_radius="true"
       only_selected="false"
       hide_knots="false" />
  </defs>
  <g
     inkscape:label="Layer 1"
     inkscape:groupmode="layer"
     id="layer1">
    <g
       id="g5195"
       transform="matrix(50.000114,0,0,50.000114,-5.734888,-0.02295003)"
       style="fill:#000000">
      <path
         style="fill:#000000;fill-opacity:1;fill-rule:evenodd;stroke:#000000;stroke-width:0.00833524"
         d="m 16.705605,14.187646 a 2.5108009,2.5108009 0 0 1 -2.5108,2.510801 2.5108009,2.5108009 0 0 1 -2.510801,-2.510801 2.5108009,2.5108009 0 0 1 2.510801,-2.510801 2.5108009,2.5108009 0 0 1 2.5108,2.510801 z"
         transform="translate(169.729,85.8124)"
         id="path5103" />
      <path
         style="fill:#000000;fill-opacity:1;fill-rule:evenodd;stroke:#000000;stroke-width:0.00833524"
         d="m 16.705605,14.187646 a 2.5108009,2.5108009 0 0 1 -2.5108,2.510801 2.5108009,2.5108009 0 0 1 -2.510801,-2.510801 2.5108009,2.5108009 0 0 1 2.510801,-2.510801 2.5108009,2.5108009 0 0 1 2.5108,2.510801 z"
         transform="translate(168.898,97.4905)"
         id="path5105" />
      <path
         style="fill:#000000;fill-opacity:1;fill-rule:evenodd;stroke:#000000;stroke-width:0.00833524"
         d="m 16.705605,14.187646 a 2.5108009,2.5108009 0 0 1 -2.5108,2.510801 2.5108009,2.5108009 0 0 1 -2.510801,-2.510801 2.5108009,2.5108009 0 0 1 2.510801,-2.510801 2.5108009,2.5108009 0 0 1 2.5108,2.510801 z"
         transform="translate(166.457,108.939)"
         id="path5107" />
      <path
         style="fill:#000000;fill-opacity:1;fill-rule:evenodd;stroke:#000000;stroke-width:0.00833524"
         d="m 16.705605,14.187646 a 2.5108009,2.5108009 0 0 1 -2.5108,2.510801 2.5108009,2.5108009 0 0 1 -2.510801,-2.510801 2.5108009,2.5108009 0 0 1 2.510801,-2.510801 2.5108009,2.5108009 0 0 1 2.5108,2.510801 z"
         transform="translate(162.451,119.937)"
         id="path5109" />
      <path
         style="fill:#000000;fill-opacity:1;fill-rule:evenodd;stroke:#000000;stroke-width:0.00833524"
         d="m 16.705605,14.187646 a 2.5108009,2.5108009 0 0 1 -2.5108,2.510801 2.5108009,2.5108009 0 0 1 -2.510801,-2.510801 2.5108009,2.5108009 0 0 1 2.510801,-2.510801 2.5108009,2.5108009 0 0 1 2.5108,2.510801 z"
         transform="translate(156.957,130.273)"
         id="path5111" />
      <path
         style="fill:#000000;fill-opacity:1;fill-rule:evenodd;stroke:#000000;stroke-width:0.00833524"
         d="m 16.705605,14.187646 a 2.5108009,2.5108009 0 0 1 -2.5108,2.510801 2.5108009,2.5108009 0 0 1 -2.510801,-2.510801 2.5108009,2.5108009 0 0 1 2.510801,-2.510801 2.5108009,2.5108009 0 0 1 2.5108,2.510801 z"
         transform="translate(150.081,139.746)"
         id="path5113" />
      <path
         style="fill:#000000;fill-opacity:1;fill-rule:evenodd;stroke:#000000;stroke-width:0.00833524"
         d="m 16.705605,14.187646 a 2.5108009,2.5108009 0 0 1 -2.5108,2.510801 2.5108009,2.5108009 0 0 1 -2.510801,-2.510801 2.5108009,2.5108009 0 0 1 2.510801,-2.510801 2.5108009,2.5108009 0 0 1 2.5108,2.510801 z"
         transform="translate(141.958,148.176)"
         id="path5115" />
      <path
         style="fill:#000000;fill-opacity:1;fill-rule:evenodd;stroke:#000000;stroke-width:0.00833524"
         d="m 16.705605,14.187646 a 2.5108009,2.5108009 0 0 1 -2.5108,2.510801 2.5108009,2.5108009 0 0 1 -2.510801,-2.510801 2.5108009,2.5108009 0 0 1 2.510801,-2.510801 2.5108009,2.5108009 0 0 1 2.5108,2.510801 z"
         transform="translate(132.73,155.381)"
         id="path5117" />
      <path
         style="fill:#000000;fill-opacity:1;fill-rule:evenodd;stroke:#000000;stroke-width:0.00833524"
         d="m 16.705605,14.187646 a 2.5108009,2.5108009 0 0 1 -2.5108,2.510801 2.5108009,2.5108009 0 0 1 -2.510801,-2.510801 2.5108009,2.5108009 0 0 1 2.510801,-2.510801 2.5108009,2.5108009 0 0 1 2.5108,2.510801 z"
         transform="translate(122.587,161.226)"
         id="path5119" />
      <path
         style="fill:#000000;fill-opacity:1;fill-rule:evenodd;stroke:#000000;stroke-width:0.00833524"
         d="m 16.705605,14.187646 a 2.5108009,2.5108009 0 0 1 -2.5108,2.510801 2.5108009,2.5108009 0 0 1 -2.510801,-2.510801 2.5108009,2.5108009 0 0 1 2.510801,-2.510801 2.5108009,2.5108009 0 0 1 2.5108,2.510801 z"
         transform="translate(111.732,165.606)"
         id="path5121" />
      <path
         style="fill:#000000;fill-opacity:1;fill-rule:evenodd;stroke:#000000;stroke-width:0.00833524"
         d="m 16.705605,14.187646 a 2.5108009,2.5108009 0 0 1 -2.5108,2.510801 2.5108009,2.5108009 0 0 1 -2.510801,-2.510801 2.5108009,2.5108009 0 0 1 2.510801,-2.510801 2.5108009,2.5108009 0 0 1 2.5108,2.510801 z"
         transform="translate(100.374,168.437)"
         id="path5123" />
      <path
         style="fill:#000000;fill-opacity:1;fill-rule:evenodd;stroke:#000000;stroke-width:0.00833524"
         d="m 16.705605,14.187646 a 2.5108009,2.5108009 0 0 1 -2.5108,2.510801 2.5108009,2.5108009 0 0 1 -2.510801,-2.510801 2.5108009,2.5108009 0 0 1 2.510801,-2.510801 2.5108009,2.5108009 0 0 1 2.5108,2.510801 z"
         transform="translate(88.7337,169.664)"
         id="path5125" />
      <path
         style="fill:#000000;fill-opacity:1;fill-rule:evenodd;stroke:#000000;stroke-width:0.00833524"
         d="m 16.705605,14.187646 a 2.5108009,2.5108009 0 0 1 -2.5108,2.510801 2.5108009,2.5108009 0 0 1 -2.510801,-2.510801 2.5108009,2.5108009 0 0 1 2.510801,-2.510801 2.5108009,2.5108009 0 0 1 2.5108,2.510801 z"
         transform="translate(77.0341,169.267)"
         id="path5127" />
      <path
         style="fill:#000000;fill-opacity:1;fill-rule:evenodd;stroke:#000000;stroke-width:0.00833524"
         d="m 16.705605,14.187646 a 2.5108009,2.5108009 0 0 1 -2.5108,2.510801 2.5108009,2.5108009 0 0 1 -2.510801,-2.510801 2.5108009,2.5108009 0 0 1 2.510801,-2.510801 2.5108009,2.5108009 0 0 1 2.5108,2.510801 z"
         transform="translate(65.5032,167.24)"
         id="path5129" />
      <path
         style="fill:#000000;fill-opacity:1;fill-rule:evenodd;stroke:#000000;stroke-width:0.00833524"
         d="m 16.705605,14.187646 a 2.5108009,2.5108009 0 0 1 -2.5108,2.510801 2.5108009,2.5108009 0 0 1 -2.510801,-2.510801 2.5108009,2.5108009 0 0 1 2.510801,-2.510801 2.5108009,2.5108009 0 0 1 2.5108,2.510801 z"
         transform="translate(54.3723,163.612)"
         id="path5131" />
      <path
         style="fill:#000000;fill-opacity:1;fill-rule:evenodd;stroke:#000000;stroke-width:0.00833524"
         d="m 16.705605,14.187646 a 2.5108009,2.5108009 0 0 1 -2.5108,2.510801 2.5108009,2.5108009 0 0 1 -2.510801,-2.510801 2.5108009,2.5108009 0 0 1 2.510801,-2.510801 2.5108009,2.5108009 0 0 1 2.5108,2.510801 z"
         transform="translate(43.8541,158.474)"
         id="path5133" />
      <path
         style="fill:#000000;fill-opacity:1;fill-rule:evenodd;stroke:#000000;stroke-width:0.00833524"
         d="m 16.705605,14.187646 a 2.5108009,2.5108009 0 0 1 -2.5108,2.510801 2.5108009,2.5108009 0 0 1 -2.510801,-2.510801 2.5108009,2.5108009 0 0 1 2.510801,-2.510801 2.5108009,2.5108009 0 0 1 2.5108,2.510801 z"
         transform="translate(34.152,151.926)"
         id="path5135" />
      <path
         style="fill:#000000;fill-opacity:1;fill-rule:evenodd;stroke:#000000;stroke-width:0.00833524"
         d="m 16.705605,14.187646 a 2.5108009,2.5108009 0 0 1 -2.5108,2.510801 2.5108009,2.5108009 0 0 1 -2.510801,-2.510801 2.5108009,2.5108009 0 0 1 2.510801,-2.510801 2.5108009,2.5108009 0 0 1 2.5108,2.510801 z"
         transform="translate(25.4525,144.095)"
         id="path5137" />
      <path
         style="fill:#000000;fill-opacity:1;fill-rule:evenodd;stroke:#000000;stroke-width:0.00833524"
         d="m 16.705605,14.187646 a 2.5108009,2.5108009 0 0 1 -2.5108,2.510801 2.5108009,2.5108009 0 0 1 -2.510801,-2.510801 2.5108009,2.5108009 0 0 1 2.510801,-2.510801 2.5108009,2.5108009 0 0 1 2.5108,2.510801 z"
         transform="translate(17.9214,135.133)"
         id="path5139" />
      <path
         style="fill:#000000;fill-opacity:1;fill-rule:evenodd;stroke:#000000;stroke-width:0.00833524"
         d="m 16.705605,14.187646 a 2.5108009,2.5108009 0 0 1 -2.5108,2.510801 2.5108009,2.5108009 0 0 1 -2.510801,-2.510801 2.5108009,2.5108009 0 0 1 2.510801,-2.510801 2.5108009,2.5108009 0 0 1 2.5108,2.510801 z"
         transform="translate(11.7076,125.211)"
         id="path5141" />
      <path
         style="fill:#000000;fill-opacity:1;fill-rule:evenodd;stroke:#000000;stroke-width:0.00833524"
         d="m 16.705605,14.187646 a 2.5108009,2.5108009 0 0 1 -2.5108,2.510801 2.5108009,2.5108009 0 0 1 -2.510801,-2.510801 2.5108009,2.5108009 0 0 1 2.510801,-2.510801 2.5108009,2.5108009 0 0 1 2.5108,2.510801 z"
         transform="translate(6.95143,114.513)"
         id="path5143" />
      <path
         style="fill:#000000;fill-opacity:1;fill-rule:evenodd;stroke:#000000;stroke-width:0.00833524"
         d="m 16.705605,14.187646 a 2.5108009,2.5108009 0 0 1 -2.5108,2.510801 2.5108009,2.5108009 0 0 1 -2.510801,-2.510801 2.5108009,2.5108009 0 0 1 2.510801,-2.510801 2.5108009,2.5108009 0 0 1 2.5108,2.510801 z"
         transform="translate(3.73336,103.257)"
         id="path5145" />
      <path
         style="fill:#000000;fill-opacity:1;fill-rule:evenodd;stroke:#000000;stroke-width:0.00833524"
         d="m 16.705605,14.187646 a 2.5108009,2.5108009 0 0 1 -2.5108,2.510801 2.5108009,2.5108009 0 0 1 -2.510801,-2.510801 2.5108009,2.5108009 0 0 1 2.510801,-2.510801 2.5108009,2.5108009 0 0 1 2.5108,2.510801 z"
         transform="translate(2.11035,91.6651)"
         id="path5147" />
      <path
         style="fill:#000000;fill-opacity:1;fill-rule:evenodd;stroke:#000000;stroke-width:0.00833524"
         d="m 16.705605,14.187646 a 2.5108009,2.5108009 0 0 1 -2.5108,2.510801 2.5108009,2.5108009 0 0 1 -2.510801,-2.510801 2.5108009,2.5108009 0 0 1 2.510801,-2.510801 2.5108009,2.5108009 0 0 1 2.5108,2.510801 z"
         transform="translate(2.11033,79.9601)"
         id="path5149" />
      <path
         style="fill:#000000;fill-opacity:1;fill-rule:evenodd;stroke:#000000;stroke-width:0.00833524"
         d="m 16.705605,14.187646 a 2.5108009,2.5108009 0 0 1 -2.5108,2.510801 2.5108009,2.5108009 0 0 1 -2.510801,-2.510801 2.5108009,2.5108009 0 0 1 2.510801,-2.510801 2.5108009,2.5108009 0 0 1 2.5108,2.510801 z"
         transform="translate(3.73332,68.3678)"
         id="path5151" />
      <path
         style="fill:#000000;fill-opacity:1;fill-rule:evenodd;stroke:#000000;stroke-width:0.00833524"
         d="m 16.705605,14.187646 a 2.5108009,2.5108009 0 0 1 -2.5108,2.510801 2.5108009,2.5108009 0 0 1 -2.510801,-2.510801 2.5108009,2.5108009 0 0 1 2.510801,-2.510801 2.5108009,2.5108009 0 0 1 2.5108,2.510801 z"
         transform="translate(6.95136,57.1123)"
         id="path5153" />
      <path
         style="fill:#000000;fill-opacity:1;fill-rule:evenodd;stroke:#000000;stroke-width:0.00833524"
         d="m 16.705605,14.187646 a 2.5108009,2.5108009 0 0 1 -2.5108,2.510801 2.5108009,2.5108009 0 0 1 -2.510801,-2.510801 2.5108009,2.5108009 0 0 1 2.510801,-2.510801 2.5108009,2.5108009 0 0 1 2.5108,2.510801 z"
         transform="translate(11.7075,46.4141)"
         id="path5155" />
      <path
         style="fill:#000000;fill-opacity:1;fill-rule:evenodd;stroke:#000000;stroke-width:0.00833524"
         d="m 16.705605,14.187646 a 2.5108009,2.5108009 0 0 1 -2.5108,2.510801 2.5108009,2.5108009 0 0 1 -2.510801,-2.510801 2.5108009,2.5108009 0 0 1 2.510801,-2.510801 2.5108009,2.5108009 0 0 1 2.5108,2.510801 z"
         transform="translate(17.9213,36.4918)"
         id="path5157" />
      <path
         style="fill:#000000;fill-opacity:1;fill-rule:evenodd;stroke:#000000;stroke-width:0.00833524"
         d="m 16.705605,14.187646 a 2.5108009,2.5108009 0 0 1 -2.5108,2.510801 2.5108009,2.5108009 0 0 1 -2.510801,-2.510801 2.5108009,2.5108009 0 0 1 2.510801,-2.510801 2.5108009,2.5108009 0 0 1 2.5108,2.510801 z"
         transform="translate(25.4524,27.5304)"
         id="path5159" />
      <path
         style="fill:#000000;fill-opacity:1;fill-rule:evenodd;stroke:#000000;stroke-width:0.00833524"
         d="m 16.705605,14.187646 a 2.5108009,2.5108009 0 0 1 -2.5108,2.510801 2.5108009,2.5108009 0 0 1 -2.510801,-2.510801 2.5108009,2.5108009 0 0 1 2.510801,-2.510801 2.5108009,2.5108009 0 0 1 2.5108,2.510801 z"
         transform="translate(34.1519,19.6993)"
         id="path5161" />
      <path
         style="fill:#000000;fill-opacity:1;fill-rule:evenodd;stroke:#000000;stroke-width:0.00833524"
         d="m 16.705605,14.187646 a 2.5108009,2.5108009 0 0 1 -2.5108,2.510801 2.5108009,2.5108009 0 0 1 -2.510801,-2.510801 2.5108009,2.5108009 0 0 1 2.510801,-2.510801 2.5108009,2.5108009 0 0 1 2.5108,2.510801 z"
         transform="translate(43.8539,13.151)"
         id="path5163" />
      <path
         style="fill:#000000;fill-opacity:1;fill-rule:evenodd;stroke:#000000;stroke-width:0.00833524"
         d="m 16.705605,14.187646 a 2.5108009,2.5108009 0 0 1 -2.5108,2.510801 2.5108009,2.5108009 0 0 1 -2.510801,-2.510801 2.5108009,2.5108009 0 0 1 2.510801,-2.510801 2.5108009,2.5108009 0 0 1 2.5108,2.510801 z"
         transform="translate(54.3721,8.01328)"
         id="path5165" />
      <path
         style="fill:#000000;fill-opacity:1;fill-rule:evenodd;stroke:#000000;stroke-width:0.00833524"
         d="m 16.705605,14.187646 a 2.5108009,2.5108009 0 0 1 -2.5108,2.510801 2.5108009,2.5108009 0 0 1 -2.510801,-2.510801 2.5108009,2.5108009 0 0 1 2.510801,-2.510801 2.5108009,2.5108009 0 0 1 2.5108,2.510801 z"
         transform="translate(65.503,4.38488)"
         id="path5167" />
      <path
         style="fill:#000000;fill-opacity:1;fill-rule:evenodd;stroke:#000000;stroke-width:0.00833524"
         d="m 16.705605,14.187646 a 2.5108009,2.5108009 0 0 1 -2.5108,2.510801 2.5108009,2.5108009 0 0 1 -2.510801,-2.510801 2.5108009,2.5108009 0 0 1 2.510801,-2.510801 2.5108009,2.5108009 0 0 1 2.5108,2.510801 z"
         transform="translate(77.0339,2.35845)"
         id="path5169" />
      <path
         style="fill:#000000;fill-opacity:1;fill-rule:evenodd;stroke:#000000;stroke-width:0.00833524"
         d="m 16.705605,14.187646 a 2.5108009,2.5108009 0 0 1 -2.5108,2.510801 2.5108009,2.5108009 0 0 1 -2.510801,-2.510801 2.5108009,2.5108009 0 0 1 2.510801,-2.510801 2.5108009,2.5108009 0 0 1 2.5108,2.510801 z"
         transform="translate(88.7335,1.96117)"
         id="path5171" />
      <path
         style="fill:#000000;fill-opacity:1;fill-rule:evenodd;stroke:#000000;stroke-width:0.00833524"
         d="m 16.705605,14.187646 a 2.5108009,2.5108009 0 0 1 -2.5108,2.510801 2.5108009,2.5108009 0 0 1 -2.510801,-2.510801 2.5108009,2.5108009 0 0 1 2.510801,-2.510801 2.5108009,2.5108009 0 0 1 2.5108,2.510801 z"
         transform="translate(100.374,3.18797)"
         id="path5173" />
      <path
         style="fill:#000000;fill-opacity:1;fill-rule:evenodd;stroke:#000000;stroke-width:0.00833524"
         d="m 16.705605,14.187646 a 2.5108009,2.5108009 0 0 1 -2.5108,2.510801 2.5108009,2.5108009 0 0 1 -2.510801,-2.510801 2.5108009,2.5108009 0 0 1 2.510801,-2.510801 2.5108009,2.5108009 0 0 1 2.5108,2.510801 z"
         transform="translate(111.732,6.01858)"
         id="path5175" />
      <path
         style="fill:#000000;fill-opacity:1;fill-rule:evenodd;stroke:#000000;stroke-width:0.00833524"
         d="m 16.705605,14.187646 a 2.5108009,2.5108009 0 0 1 -2.5108,2.510801 2.5108009,2.5108009 0 0 1 -2.510801,-2.510801 2.5108009,2.5108009 0 0 1 2.510801,-2.510801 2.5108009,2.5108009 0 0 1 2.5108,2.510801 z"
         transform="translate(122.587,10.3989)"
         id="path5177" />
      <path
         style="fill:#000000;fill-opacity:1;fill-rule:evenodd;stroke:#000000;stroke-width:0.00833524"
         d="m 16.705605,14.187646 a 2.5108009,2.5108009 0 0 1 -2.5108,2.510801 2.5108009,2.5108009 0 0 1 -2.510801,-2.510801 2.5108009,2.5108009 0 0 1 2.510801,-2.510801 2.5108009,2.5108009 0 0 1 2.5108,2.510801 z"
         transform="translate(132.73,16.2441)"
         id="path5179" />
      <path
         style="fill:#000000;fill-opacity:1;fill-rule:evenodd;stroke:#000000;stroke-width:0.00833524"
         d="m 16.705605,14.187646 a 2.5108009,2.5108009 0 0 1 -2.5108,2.510801 2.5108009,2.5108009 0 0 1 -2.510801,-2.510801 2.5108009,2.5108009 0 0 1 2.510801,-2.510801 2.5108009,2.5108009 0 0 1 2.5108,2.510801 z"
         transform="translate(141.958,23.4488)"
         id="path5181" />
      <path
         style="fill:#000000;fill-opacity:1;fill-rule:evenodd;stroke:#000000;stroke-width:0.00833524"
         d="m 16.705605,14.187646 a 2.5108009,2.5108009 0 0 1 -2.5108,2.510801 2.5108009,2.5108009 0 0 1 -2.510801,-2.510801 2.5108009,2.5108009 0 0 1 2.510801,-2.510801 2.5108009,2.5108009 0 0 1 2.5108,2.510801 z"
         transform="translate(150.081,31.8791)"
         id="path5183" />
      <path
         style="fill:#000000;fill-opacity:1;fill-rule:evenodd;stroke:#000000;stroke-width:0.00833524"
         d="m 16.705605,14.187646 a 2.5108009,2.5108009 0 0 1 -2.5108,2.510801 2.5108009,2.5108009 0 0 1 -2.510801,-2.510801 2.5108009,2.5108009 0 0 1 2.510801,-2.510801 2.5108009,2.5108009 0 0 1 2.5108,2.510801 z"
         transform="translate(156.957,41.3521)"
         id="path5185" />
      <path
         style="fill:#000000;fill-opacity:1;fill-rule:evenodd;stroke:#000000;stroke-width:0.00833524"
         d="m 16.705605,14.187646 a 2.5108009,2.5108009 0 0 1 -2.5108,2.510801 2.5108009,2.5108009 0 0 1 -2.510801,-2.510801 2.5108009,2.5108009 0 0 1 2.510801,-2.510801 2.5108009,2.5108009 0 0 1 2.5108,2.510801 z"
         transform="translate(162.451,51.6875)"
         id="path5187" />
      <path
         style="fill:#000000;fill-opacity:1;fill-rule:evenodd;stroke:#000000;stroke-width:0.00833524"
         d="m 16.705605,14.187646 a 2.5108009,2.5108009 0 0 1 -2.5108,2.510801 2.5108009,2.5108009 0 0 1 -2.510801,-2.510801 2.5108009,2.5108009 0 0 1 2.510801,-2.510801 2.5108009,2.5108009 0 0 1 2.5108,2.510801 z"
         id="path5189"
         transform="translate(166.457,62.6857)" />
      <path
         style="fill:#000000;fill-opacity:1;fill-rule:evenodd;stroke:#000000;stroke-width:0.00833524"
         d="m 16.705605,14.187646 a 2.5108009,2.5108009 0 0 1 -2.5108,2.510801 2.5108009,2.5108009 0 0 1 -2.510801,-2.510801 2.5108009,2.5108009 0 0 1 2.510801,-2.510801 2.5108009,2.5108009 0 0 1 2.5108,2.510801 z"
         transform="translate(168.898,74.1343)"
         id="path5191" />
      <path
         style="fill:#000000;fill-opacity:1;fill-rule:evenodd;stroke:#000000;stroke-width:0.00833524"
         d="m 16.705605,14.187646 a 2.5108009,2.5108009 0 0 1 -2.5108,2.510801 2.5108009,2.5108009 0 0 1 -2.510801,-2.510801 2.5108009,2.5108009 0 0 1 2.510801,-2.510801 2.5108009,2.5108009 0 0 1 2.5108,2.510801 z"
         transform="translate(169.729,85.8124)"
         id="path5193" />
    </g>
    <rect
       style="fill:#000000;fill-opacity:1;fill-rule:evenodd;stroke:none;stroke-width:14.1911"
       id="rect5367"
       width="228.95245"
       height="5786.8394"
       x="4885.5239"
       y="2106.5803"
       rx="114.47623"
       ry="114.47623" />
    <path
       style="fill:#000000;fill-opacity:1;fill-rule:evenodd;stroke:none;stroke-width:14.4398"
       id="rect5451"
       width="237.06073"
       height="5786.5898"
       x="4881.4697"
       y="-7893.2949"
       transform="rotate(90)"
       sodipodi:type="rect"
       rx="118.53036"
       ry="118.53036"
       d="m 5000.0001,-7893.2949 h 0 c 65.6658,0 118.5304,52.8645 118.5304,118.5303 v 5549.5292 c 0,65.6658 -52.8646,118.5303 -118.5304,118.5303 h 0 c -65.6658,0 -118.5304,-52.8645 -118.5304,-118.5303 v -5549.5292 c 0,-65.6658 52.8646,-118.5303 118.5304,-118.5303 z" />
  </g>
</svg>
